<mxfile host="app.diagrams.net" modified="2021-03-26T10:17:53.449Z" agent="5.0 (Windows NT 10.0; Win64; x64) AppleWebKit/537.36 (KHTML, like Gecko) Chrome/89.0.4389.90 Safari/537.36 Edg/89.0.774.57" etag="YHhapKVBF4hs_PgKsRHz" version="14.5.1" type="github">
  <diagram id="C5RBs43oDa-KdzZeNtuy" name="Page-1">
    <mxGraphModel dx="1422" dy="794" grid="1" gridSize="10" guides="1" tooltips="1" connect="1" arrows="1" fold="1" page="1" pageScale="1" pageWidth="827" pageHeight="1169" math="0" shadow="0">
      <root>
        <mxCell id="WIyWlLk6GJQsqaUBKTNV-0" />
        <mxCell id="WIyWlLk6GJQsqaUBKTNV-1" parent="WIyWlLk6GJQsqaUBKTNV-0" />
        <mxCell id="4tj3fXw6MV_wgokn5749-18" style="edgeStyle=orthogonalEdgeStyle;rounded=0;orthogonalLoop=1;jettySize=auto;html=1;" edge="1" parent="WIyWlLk6GJQsqaUBKTNV-1" source="4tj3fXw6MV_wgokn5749-1" target="4tj3fXw6MV_wgokn5749-2">
          <mxGeometry relative="1" as="geometry" />
        </mxCell>
        <mxCell id="4tj3fXw6MV_wgokn5749-1" value="Start" style="ellipse;whiteSpace=wrap;html=1;aspect=fixed;" vertex="1" parent="WIyWlLk6GJQsqaUBKTNV-1">
          <mxGeometry x="290" y="10" width="80" height="80" as="geometry" />
        </mxCell>
        <mxCell id="4tj3fXw6MV_wgokn5749-5" style="edgeStyle=orthogonalEdgeStyle;rounded=0;orthogonalLoop=1;jettySize=auto;html=1;" edge="1" parent="WIyWlLk6GJQsqaUBKTNV-1" source="4tj3fXw6MV_wgokn5749-2" target="4tj3fXw6MV_wgokn5749-4">
          <mxGeometry relative="1" as="geometry" />
        </mxCell>
        <mxCell id="4tj3fXw6MV_wgokn5749-2" value="Screen #1&lt;br&gt;Identify&lt;br&gt;Enter MDN / MEID" style="rounded=1;whiteSpace=wrap;html=1;" vertex="1" parent="WIyWlLk6GJQsqaUBKTNV-1">
          <mxGeometry x="270" y="150" width="120" height="60" as="geometry" />
        </mxCell>
        <mxCell id="4tj3fXw6MV_wgokn5749-8" style="edgeStyle=orthogonalEdgeStyle;rounded=0;orthogonalLoop=1;jettySize=auto;html=1;" edge="1" parent="WIyWlLk6GJQsqaUBKTNV-1" source="4tj3fXw6MV_wgokn5749-4" target="4tj3fXw6MV_wgokn5749-12">
          <mxGeometry relative="1" as="geometry">
            <Array as="points">
              <mxPoint x="630" y="260" />
              <mxPoint x="340" y="260" />
              <mxPoint x="340" y="330" />
            </Array>
          </mxGeometry>
        </mxCell>
        <mxCell id="4tj3fXw6MV_wgokn5749-4" value="&lt;span style=&quot;text-align: left&quot;&gt;REST CALL1 (Existing)&lt;br&gt;&amp;nbsp;for Store Update for MDN&lt;br&gt;&lt;font face=&quot;consolas, lucida console, courier new, monospace&quot;&gt;checkUserRegistrationDetailsX9&lt;/font&gt;&lt;/span&gt;" style="whiteSpace=wrap;html=1;" vertex="1" parent="WIyWlLk6GJQsqaUBKTNV-1">
          <mxGeometry x="495" y="135" width="250" height="90" as="geometry" />
        </mxCell>
        <mxCell id="4tj3fXw6MV_wgokn5749-11" style="edgeStyle=orthogonalEdgeStyle;rounded=0;orthogonalLoop=1;jettySize=auto;html=1;entryX=0;entryY=0.75;entryDx=0;entryDy=0;" edge="1" parent="WIyWlLk6GJQsqaUBKTNV-1" source="4tj3fXw6MV_wgokn5749-7" target="4tj3fXw6MV_wgokn5749-10">
          <mxGeometry relative="1" as="geometry" />
        </mxCell>
        <mxCell id="4tj3fXw6MV_wgokn5749-7" value="Screen #2&lt;br&gt;Enter Username" style="whiteSpace=wrap;html=1;" vertex="1" parent="WIyWlLk6GJQsqaUBKTNV-1">
          <mxGeometry x="280" y="500" width="120" height="60" as="geometry" />
        </mxCell>
        <mxCell id="4tj3fXw6MV_wgokn5749-30" style="edgeStyle=orthogonalEdgeStyle;rounded=0;orthogonalLoop=1;jettySize=auto;html=1;entryX=1;entryY=0.5;entryDx=0;entryDy=0;exitX=0.5;exitY=1;exitDx=0;exitDy=0;" edge="1" parent="WIyWlLk6GJQsqaUBKTNV-1" source="4tj3fXw6MV_wgokn5749-10" target="4tj3fXw6MV_wgokn5749-28">
          <mxGeometry relative="1" as="geometry" />
        </mxCell>
        <mxCell id="4tj3fXw6MV_wgokn5749-10" value="&lt;span style=&quot;text-align: left&quot;&gt;REST CALL 2 (Existing)&lt;br&gt;&lt;/span&gt;&lt;span style=&quot;text-align: left&quot;&gt;initiateX9&lt;/span&gt;&lt;span style=&quot;text-align: left&quot;&gt;&lt;br&gt;Request - userName,&quot;mfaActivityType&quot;:&quot;INITIATE&quot;&lt;br&gt;&lt;/span&gt;&lt;span style=&quot;font-family: &amp;#34;calibri&amp;#34; ; font-size: 14.6667px&quot;&gt;&lt;br&gt;Response - MFA&lt;/span&gt;&lt;br style=&quot;font-family: &amp;#34;calibri&amp;#34; ; font-size: 14.6667px&quot;&gt;&lt;span style=&quot;font-family: &amp;#34;calibri&amp;#34; ; font-size: 14.6667px&quot;&gt;Session Id, (Masked Email, Masked Mobile Number inside MFA Devices)&lt;/span&gt;&lt;span style=&quot;text-align: left&quot;&gt;&lt;br&gt;&lt;/span&gt;" style="whiteSpace=wrap;html=1;" vertex="1" parent="WIyWlLk6GJQsqaUBKTNV-1">
          <mxGeometry x="585" y="410" width="460" height="170" as="geometry" />
        </mxCell>
        <mxCell id="4tj3fXw6MV_wgokn5749-16" style="edgeStyle=orthogonalEdgeStyle;rounded=0;orthogonalLoop=1;jettySize=auto;html=1;" edge="1" parent="WIyWlLk6GJQsqaUBKTNV-1" source="4tj3fXw6MV_wgokn5749-12" target="4tj3fXw6MV_wgokn5749-15">
          <mxGeometry relative="1" as="geometry" />
        </mxCell>
        <mxCell id="4tj3fXw6MV_wgokn5749-19" style="edgeStyle=orthogonalEdgeStyle;rounded=0;orthogonalLoop=1;jettySize=auto;html=1;" edge="1" parent="WIyWlLk6GJQsqaUBKTNV-1" source="4tj3fXw6MV_wgokn5749-12" target="4tj3fXw6MV_wgokn5749-7">
          <mxGeometry relative="1" as="geometry" />
        </mxCell>
        <mxCell id="4tj3fXw6MV_wgokn5749-12" value="If Rest Call 1 is OK 200" style="rhombus;whiteSpace=wrap;html=1;" vertex="1" parent="WIyWlLk6GJQsqaUBKTNV-1">
          <mxGeometry x="250" y="300" width="180" height="120" as="geometry" />
        </mxCell>
        <mxCell id="4tj3fXw6MV_wgokn5749-15" value="BE ERROR" style="whiteSpace=wrap;html=1;" vertex="1" parent="WIyWlLk6GJQsqaUBKTNV-1">
          <mxGeometry x="560" y="330" width="120" height="60" as="geometry" />
        </mxCell>
        <mxCell id="4tj3fXw6MV_wgokn5749-20" value="YES" style="text;html=1;align=center;verticalAlign=middle;resizable=0;points=[];autosize=1;" vertex="1" parent="WIyWlLk6GJQsqaUBKTNV-1">
          <mxGeometry x="350" y="450" width="40" height="20" as="geometry" />
        </mxCell>
        <mxCell id="4tj3fXw6MV_wgokn5749-21" value="NO" style="text;html=1;align=center;verticalAlign=middle;resizable=0;points=[];autosize=1;" vertex="1" parent="WIyWlLk6GJQsqaUBKTNV-1">
          <mxGeometry x="455" y="330" width="30" height="20" as="geometry" />
        </mxCell>
        <mxCell id="4tj3fXw6MV_wgokn5749-33" style="edgeStyle=orthogonalEdgeStyle;rounded=0;orthogonalLoop=1;jettySize=auto;html=1;entryX=0;entryY=0.75;entryDx=0;entryDy=0;" edge="1" parent="WIyWlLk6GJQsqaUBKTNV-1" source="4tj3fXw6MV_wgokn5749-24" target="4tj3fXw6MV_wgokn5749-32">
          <mxGeometry relative="1" as="geometry" />
        </mxCell>
        <mxCell id="4tj3fXw6MV_wgokn5749-24" value="Screen #3&lt;br&gt;MFA&amp;nbsp;&lt;br&gt;Without Passcode Input&amp;nbsp;" style="whiteSpace=wrap;html=1;" vertex="1" parent="WIyWlLk6GJQsqaUBKTNV-1">
          <mxGeometry x="307" y="830" width="120" height="60" as="geometry" />
        </mxCell>
        <mxCell id="4tj3fXw6MV_wgokn5749-51" style="edgeStyle=orthogonalEdgeStyle;rounded=0;orthogonalLoop=1;jettySize=auto;html=1;" edge="1" parent="WIyWlLk6GJQsqaUBKTNV-1" source="4tj3fXw6MV_wgokn5749-25" target="4tj3fXw6MV_wgokn5749-49">
          <mxGeometry relative="1" as="geometry" />
        </mxCell>
        <mxCell id="4tj3fXw6MV_wgokn5749-25" value="Screen 4&lt;br&gt;Create Password" style="whiteSpace=wrap;html=1;" vertex="1" parent="WIyWlLk6GJQsqaUBKTNV-1">
          <mxGeometry x="307" y="1510" width="120" height="60" as="geometry" />
        </mxCell>
        <mxCell id="4tj3fXw6MV_wgokn5749-31" style="edgeStyle=orthogonalEdgeStyle;rounded=0;orthogonalLoop=1;jettySize=auto;html=1;entryX=0.358;entryY=-0.05;entryDx=0;entryDy=0;entryPerimeter=0;" edge="1" parent="WIyWlLk6GJQsqaUBKTNV-1" source="4tj3fXw6MV_wgokn5749-28" target="4tj3fXw6MV_wgokn5749-24">
          <mxGeometry relative="1" as="geometry" />
        </mxCell>
        <mxCell id="4tj3fXw6MV_wgokn5749-28" value="If Rest Call 2 is OK 200" style="rhombus;whiteSpace=wrap;html=1;" vertex="1" parent="WIyWlLk6GJQsqaUBKTNV-1">
          <mxGeometry x="260" y="630" width="180" height="120" as="geometry" />
        </mxCell>
        <mxCell id="4tj3fXw6MV_wgokn5749-36" style="edgeStyle=orthogonalEdgeStyle;rounded=0;orthogonalLoop=1;jettySize=auto;html=1;entryX=1;entryY=0.5;entryDx=0;entryDy=0;exitX=0.5;exitY=1;exitDx=0;exitDy=0;" edge="1" parent="WIyWlLk6GJQsqaUBKTNV-1" source="4tj3fXw6MV_wgokn5749-32" target="4tj3fXw6MV_wgokn5749-35">
          <mxGeometry relative="1" as="geometry" />
        </mxCell>
        <mxCell id="4tj3fXw6MV_wgokn5749-32" value="&lt;ol class=&quot;children expanded&quot; style=&quot;box-sizing: border-box ; min-width: 0px ; min-height: 0px ; list-style-type: none ; padding-left: 10px ; font-family: &amp;#34;consolas&amp;#34; , &amp;#34;lucida console&amp;#34; , &amp;#34;courier new&amp;#34; , monospace&quot;&gt;&lt;li tabindex=&quot;0&quot; class=&quot;force-white-icons selected&quot; style=&quot;box-sizing: border-box ; min-width: 0px ; min-height: 12px ; outline-width: 0px ; text-overflow: ellipsis ; position: relative ; display: block ; align-items: center ; padding-left: 5px ; line-height: 20px ; margin-top: 1px ; margin-left: 10px&quot;&gt;&lt;span class=&quot;name-and-value&quot; style=&quot;box-sizing: border-box ; min-width: 0px ; min-height: 0px ; overflow: hidden ; text-overflow: ellipsis ; line-height: 16px&quot;&gt;&lt;span class=&quot;name&quot; style=&quot;box-sizing: border-box ; min-width: 0px ; min-height: 0px&quot;&gt;REST CALL 3 (Existing)&lt;br&gt;&lt;span style=&quot;font-family: &amp;#34;helvetica&amp;#34; ; text-align: left&quot;&gt;initiateX9&lt;/span&gt;&lt;br&gt;&lt;/span&gt;&lt;/span&gt;&lt;/li&gt;&lt;li tabindex=&quot;0&quot; class=&quot;force-white-icons selected&quot; style=&quot;box-sizing: border-box ; min-width: 0px ; min-height: 12px ; outline-width: 0px ; text-overflow: ellipsis ; position: relative ; display: block ; align-items: center ; padding-left: 5px ; line-height: 20px ; margin-top: 1px ; margin-left: 10px&quot;&gt;&lt;span class=&quot;name-and-value&quot; style=&quot;box-sizing: border-box ; min-width: 0px ; min-height: 0px ; overflow: hidden ; text-overflow: ellipsis ; line-height: 16px&quot;&gt;&lt;span class=&quot;name&quot; style=&quot;box-sizing: border-box ; min-width: 0px ; min-height: 0px&quot;&gt;mfaActivityType&lt;/span&gt;:&amp;nbsp;&lt;span class=&quot;object-value-string value&quot; style=&quot;box-sizing: border-box ; min-width: 0px ; min-height: 0px&quot;&gt;&lt;span class=&quot;object-value-string-quote&quot; style=&quot;box-sizing: border-box ; min-width: 0px ; min-height: 0px&quot;&gt;&quot;&lt;/span&gt;SEND&lt;span class=&quot;object-value-string-quote&quot; style=&quot;box-sizing: border-box ; min-width: 0px ; min-height: 0px&quot;&gt;&quot;&lt;/span&gt;&lt;/span&gt;&lt;/span&gt;&lt;/li&gt;&lt;li style=&quot;box-sizing: border-box ; min-width: 0px ; min-height: 12px ; text-overflow: ellipsis ; position: relative ; display: block ; align-items: center ; padding-left: 5px ; line-height: 20px ; margin-top: 1px ; margin-left: 10px&quot;&gt;&lt;span class=&quot;name-and-value&quot; style=&quot;box-sizing: border-box ; min-width: 0px ; min-height: 0px ; overflow: hidden ; text-overflow: ellipsis ; line-height: 16px&quot;&gt;&lt;span class=&quot;name&quot; style=&quot;box-sizing: border-box ; min-width: 0px ; min-height: 0px&quot;&gt;mfaSessionId,&lt;/span&gt;&amp;nbsp;&lt;/span&gt;&lt;span class=&quot;name&quot; style=&quot;box-sizing: border-box ; min-width: 0px ; min-height: 0px&quot;&gt;userName,&lt;/span&gt;&lt;/li&gt;&lt;/ol&gt;" style="whiteSpace=wrap;html=1;" vertex="1" parent="WIyWlLk6GJQsqaUBKTNV-1">
          <mxGeometry x="740" y="747" width="315" height="150" as="geometry" />
        </mxCell>
        <mxCell id="4tj3fXw6MV_wgokn5749-43" style="edgeStyle=orthogonalEdgeStyle;rounded=0;orthogonalLoop=1;jettySize=auto;html=1;" edge="1" parent="WIyWlLk6GJQsqaUBKTNV-1" source="4tj3fXw6MV_wgokn5749-35" target="4tj3fXw6MV_wgokn5749-42">
          <mxGeometry relative="1" as="geometry" />
        </mxCell>
        <mxCell id="4tj3fXw6MV_wgokn5749-35" value="If Rest Call 3 is OK 200" style="rhombus;whiteSpace=wrap;html=1;" vertex="1" parent="WIyWlLk6GJQsqaUBKTNV-1">
          <mxGeometry x="277" y="930" width="180" height="120" as="geometry" />
        </mxCell>
        <mxCell id="4tj3fXw6MV_wgokn5749-46" style="edgeStyle=orthogonalEdgeStyle;rounded=0;orthogonalLoop=1;jettySize=auto;html=1;entryX=1;entryY=0.5;entryDx=0;entryDy=0;exitX=0.521;exitY=1.017;exitDx=0;exitDy=0;exitPerimeter=0;" edge="1" parent="WIyWlLk6GJQsqaUBKTNV-1" source="4tj3fXw6MV_wgokn5749-38" target="4tj3fXw6MV_wgokn5749-40">
          <mxGeometry relative="1" as="geometry">
            <Array as="points">
              <mxPoint x="845" y="1212" />
              <mxPoint x="845" y="1300" />
              <mxPoint x="750" y="1300" />
              <mxPoint x="750" y="1350" />
            </Array>
          </mxGeometry>
        </mxCell>
        <mxCell id="4tj3fXw6MV_wgokn5749-38" value="&lt;span style=&quot;text-align: left&quot;&gt;REST CALL 4 submitX9 (Existing)&lt;br&gt;With Passcode&lt;br&gt;&lt;/span&gt;" style="whiteSpace=wrap;html=1;" vertex="1" parent="WIyWlLk6GJQsqaUBKTNV-1">
          <mxGeometry x="680" y="1090" width="330" height="120" as="geometry" />
        </mxCell>
        <mxCell id="4tj3fXw6MV_wgokn5749-47" style="edgeStyle=orthogonalEdgeStyle;rounded=0;orthogonalLoop=1;jettySize=auto;html=1;entryX=0.558;entryY=-0.033;entryDx=0;entryDy=0;entryPerimeter=0;" edge="1" parent="WIyWlLk6GJQsqaUBKTNV-1" source="4tj3fXw6MV_wgokn5749-40" target="4tj3fXw6MV_wgokn5749-25">
          <mxGeometry relative="1" as="geometry" />
        </mxCell>
        <mxCell id="4tj3fXw6MV_wgokn5749-40" value="If Rest Call 4 is OK 200" style="rhombus;whiteSpace=wrap;html=1;" vertex="1" parent="WIyWlLk6GJQsqaUBKTNV-1">
          <mxGeometry x="280" y="1290" width="180" height="120" as="geometry" />
        </mxCell>
        <mxCell id="4tj3fXw6MV_wgokn5749-41" value="For Sending 4 digit Passcode" style="text;html=1;align=center;verticalAlign=middle;resizable=0;points=[];autosize=1;" vertex="1" parent="WIyWlLk6GJQsqaUBKTNV-1">
          <mxGeometry x="455" y="830" width="170" height="20" as="geometry" />
        </mxCell>
        <mxCell id="4tj3fXw6MV_wgokn5749-45" style="edgeStyle=orthogonalEdgeStyle;rounded=0;orthogonalLoop=1;jettySize=auto;html=1;" edge="1" parent="WIyWlLk6GJQsqaUBKTNV-1" source="4tj3fXw6MV_wgokn5749-42" target="4tj3fXw6MV_wgokn5749-38">
          <mxGeometry relative="1" as="geometry" />
        </mxCell>
        <mxCell id="4tj3fXw6MV_wgokn5749-42" value="Screen #3&lt;br&gt;MFA&amp;nbsp;&lt;br&gt;With Passcode Input&amp;nbsp;" style="whiteSpace=wrap;html=1;" vertex="1" parent="WIyWlLk6GJQsqaUBKTNV-1">
          <mxGeometry x="307" y="1160" width="120" height="60" as="geometry" />
        </mxCell>
        <mxCell id="4tj3fXw6MV_wgokn5749-48" value="Change Password Success and Redirect to Login" style="rounded=0;whiteSpace=wrap;html=1;" vertex="1" parent="WIyWlLk6GJQsqaUBKTNV-1">
          <mxGeometry x="307" y="1840" width="120" height="60" as="geometry" />
        </mxCell>
        <mxCell id="4tj3fXw6MV_wgokn5749-52" style="edgeStyle=orthogonalEdgeStyle;rounded=0;orthogonalLoop=1;jettySize=auto;html=1;entryX=0.5;entryY=0;entryDx=0;entryDy=0;" edge="1" parent="WIyWlLk6GJQsqaUBKTNV-1" source="4tj3fXw6MV_wgokn5749-49" target="4tj3fXw6MV_wgokn5749-48">
          <mxGeometry relative="1" as="geometry" />
        </mxCell>
        <mxCell id="4tj3fXw6MV_wgokn5749-49" value="If Valid Password" style="rhombus;whiteSpace=wrap;html=1;" vertex="1" parent="WIyWlLk6GJQsqaUBKTNV-1">
          <mxGeometry x="277" y="1620" width="180" height="120" as="geometry" />
        </mxCell>
      </root>
    </mxGraphModel>
  </diagram>
</mxfile>
